# xmcd
# 
# Track frame offsets:
#     150
#     15636
#     30630
#     48024
#     65181
#     82542
#     100854
#     113584
#     126667
#     143731
#     157458
#     173447
#     188383
# 
# Disc length: 2779
# 
# Revision: 1
# Processed by: cddbd v1.5.2PL0 Copyright (c) Steve Scherf et al.
# Submitted via: fre:ac v1.1beta1pre4
# 
DISCID=9f0ad90d
DTITLE=Rhythm Angels - Rebecca Folsom and Celeste Krenz - The Rhythm Angels
DYEAR=2009
DGENRE=Folk
TTITLE0=Girls Like Us
TTITLE1=If Wishes Were Horses
TTITLE2=Mama's House
TTITLE3=Sister Love's Cafe
TTITLE4=Until It Comes Around Again
TTITLE5=Something Good
TTITLE6=If I Had A Gun
TTITLE7=29 Ways
TTITLE8=Listen To October
TTITLE9=Wish I Could Love That Way
TTITLE10=If I Don't Leave Now
TTITLE11=Fall Into Me
TTITLE12=She Loves To Love A Fool
EXTD=
EXTT0=
EXTT1=
EXTT2=
EXTT3=
EXTT4=
EXTT5=
EXTT6=
EXTT7=
EXTT8=
EXTT9=
EXTT10=
EXTT11=
EXTT12=
PLAYORDER=
